<svg height="512" viewBox="0 0 58 48" width="512" xmlns="http://www.w3.org/2000/svg"><g id="Page-1" fill="none" fill-rule="evenodd"><g id="001---Camera" fill-rule="nonzero"><path id="Shape" d="m58 16v-10c-.0032948-1.10320187-.8967981-1.9967052-2-2h-3v-2c-.0032948-1.10320187-.8967981-1.9967052-2-2h-4c-1.1032019.0032948-1.9967052.89679813-2 2v2h-25v-3c0-.55228475-.4477153-1-1-1h-2c-.5522847 0-1 .44771525-1 1v3h-4v-2c-.0032948-1.10320187-.8967981-1.9967052-2-2h-4c-1.10320187.0032948-1.9967052.89679813-2 2v2h-2c-1.10320187.0032948-1.9967052.89679813-2 2v10c.0032948 1.1032019.89679813 1.9967052 2 2v22c-1.10320187.0032948-1.9967052.8967981-2 2v4c.0032948 1.1032019.89679813 1.9967052 2 2h54c1.1032019-.0032948 1.9967052-.8967981 2-2v-4c-.0032948-1.1032019-.8967981-1.9967052-2-2v-22c1.1032019-.0032948 1.9967052-.8967981 2-2z" fill="#a46a43"/><path id="Shape" d="m24.35 40h-22.35v-22h22.35c-3.3776659 2.6507754-5.3502548 6.7063725-5.3502548 11s1.9725889 8.3492246 5.3502548 11z" fill="#bcc2c6"/><path id="Shape" d="m19.63 33h-5.63c-2.209139 0-4-1.790861-4-4s1.790861-4 4-4h5.63z" fill="#7f8b8c"/><path id="Shape" d="m56 18v22h-14.35c3.3776659-2.6507754 5.3502548-6.7063725 5.3502548-11s-1.9725889-8.3492246-5.3502548-11z" fill="#bcc2c6"/><path id="Shape" d="m47 29c.0073847 6.5320011-4.49834 12.2031205-10.8629128 13.6725785-6.3645727 1.4694581-12.9004215-1.6523733-15.7573663-7.5264655-2.8569449-5.8740922-1.2774644-12.9429246 3.8079909-17.0423438s12.3284724-4.1424606 17.4622882-.1037692c3.3806775 2.6483179 5.3539534 6.7055207 5.35 11z" fill="#94a4a4"/><circle id="Oval" cx="33" cy="29" fill="#3b96d2" r="10"/><path id="Shape" d="m33 40c-6.0751322 0-11-4.9248678-11-11s4.9248678-11 11-11 11 4.9248678 11 11c-.0071635 6.0721626-4.9278374 10.9928365-11 11zm0-20c-4.9705627 0-9 4.0294373-9 9s4.0294373 9 9 9 9-4.0294373 9-9c-.006061-4.9680501-4.0319499-8.993939-9-9z" fill="#bcc2c6"/><circle id="Oval" cx="33" cy="29" fill="#83b4ca" r="6"/><path id="Shape" d="m34 31.731c-.4518963-.0007995-.8471015-.3045637-.9641211-.7410466-.1170195-.436483.0732295-.8972054.4641211-1.1239534.4202794-.2426484.6056749-.752025.4396897-1.2080535-.1659851-.4560285-.6354319-.7270557-1.1133546-.6427767-.4779226.084279-.8263474.4995334-.8263351.9848302 0 .5522847-.4477153 1-1 1s-1-.4477153-1-1c.0009336-1.4556384 1.0466857-2.7005654 2.4803179-2.9527216 1.4336323-.2521561 2.8414129.5612283 3.3389785 1.9291876.4975655 1.3679593-.0586764 2.8957143-1.3192964 3.623534-.1523066.0867294-.3247331.1319052-.5.131z" fill="#ebeff0"/><g fill="#bcc2c6"><path id="Shape" d="m12 2v2h-8v-2c.0032948-1.10320187.89679813-1.9967052 2-2h4c1.1032019.0032948 1.9967052.89679813 2 2z"/><path id="Shape" d="m53 2v2h-8v-2c.0032948-1.10320187.8967981-1.9967052 2-2h4c1.1032019.0032948 1.9967052.89679813 2 2z"/><path id="Shape" d="m20 1v3h-4v-3c0-.55228475.4477153-1 1-1h2c.5522847 0 1 .44771525 1 1z"/></g><path id="Shape" d="m21 45h-17c-.55228475 0-1-.4477153-1-1s.44771525-1 1-1h17c.5522847 0 1 .4477153 1 1s-.4477153 1-1 1z" fill="#805333"/><path id="Shape" d="m54 45h-10c-.5522847 0-1-.4477153-1-1s.4477153-1 1-1h10c.5522847 0 1 .4477153 1 1s-.4477153 1-1 1z" fill="#805333"/><circle id="Oval" cx="14" cy="29" fill="#bcc2c6" r="1"/><rect id="Rectangle-path" fill="#3b96d2" height="6" rx="1" width="8" x="4" y="8"/><rect id="Rectangle-path" fill="#83b4ca" height="6" rx="1" width="8" x="16" y="8"/><rect id="Rectangle-path" fill="#83b4ca" height="6" rx="1" width="8" x="42" y="8"/><path id="Shape" d="m11 15h-6c-1.1045695 0-2-.8954305-2-2v-4c0-1.1045695.8954305-2 2-2h6c1.1045695 0 2 .8954305 2 2v4c0 1.1045695-.8954305 2-2 2zm-6-6v4h6v-4z" fill="#bcc2c6"/><path id="Shape" d="m23 15h-6c-1.1045695 0-2-.8954305-2-2v-4c0-1.1045695.8954305-2 2-2h6c1.1045695 0 2 .8954305 2 2v4c0 1.1045695-.8954305 2-2 2zm-6-6v4h6v-4z" fill="#bcc2c6"/><path id="Shape" d="m49 15h-6c-1.1045695 0-2-.8954305-2-2v-4c0-1.1045695.8954305-2 2-2h6c1.1045695 0 2 .8954305 2 2v4c0 1.1045695-.8954305 2-2 2zm-6-6v4h6v-4z" fill="#bcc2c6"/></g></g></svg>