<svg height="512" viewBox="0 0 64 64" width="512" xmlns="http://www.w3.org/2000/svg"><g id="Photo_Camera-Photography-Image-Vintage-Technology" data-name="Photo Camera-Photography-Image-Vintage-Technology"><path d="m12 22h8v2h-8z"/><path d="m14 26h4v2h-4z"/><path d="m31 26h2v2h-2z"/><path d="m8 30h17v2h-17z"/><path d="m56 46v-12h-38v26h38v-4h-5v-2h5v-2h-5v-2h5v-2h-5v-2zm-24 12a11 11 0 1 1 11-11 11.013 11.013 0 0 1 -11 11zm16-20v-2h6v2z"/><path d="m8 34h8v26h-8z"/><path d="m32 38a9 9 0 1 0 9 9 9.01 9.01 0 0 0 -9-9zm0 16a7 7 0 1 1 7-7 7.008 7.008 0 0 1 -7 7z"/><path d="m27 22v10h10v-10zm8 7a1 1 0 0 1 -1 1h-4a1 1 0 0 1 -1-1v-4a1 1 0 0 1 1-1h4a1 1 0 0 1 1 1z"/><path d="m53.12 24 .75-6h-9.74l.75 6zm-6.12-4h4v2h-4z"/><path d="m56 15v-10a1 1 0 0 0 -1-1h-12a1 1 0 0 0 -1 1v10a1 1 0 0 0 1 1h12a1 1 0 0 0 1-1zm-5-2h-4a3 3 0 0 1 0-6h4a3 3 0 0 1 0 6z"/><path d="m56 28v-2h-17v2h8v2h-8v2h17v-2h-5v-2z"/><path d="m32 42a5 5 0 1 0 5 5 5.006 5.006 0 0 0 -5-5zm1 5a1 1 0 0 0 -1-1v-2a3 3 0 0 1 3 3z"/><path d="m51 9h-4a1 1 0 0 0 0 2h4a1 1 0 0 0 0-2z"/></g></svg>